<mxfile host="app.diagrams.net" modified="2024-03-31T18:25:34.255Z" agent="Mozilla/5.0 (Macintosh; Intel Mac OS X 10_15_7) AppleWebKit/605.1.15 (KHTML, like Gecko) Version/17.4 Safari/605.1.15" etag="THl9fU6kPiqIyCrs3Lj6" version="24.2.1" type="device">
  <diagram id="C5RBs43oDa-KdzZeNtuy" name="Page-1">
    <mxGraphModel dx="2052" dy="1384" grid="1" gridSize="10" guides="1" tooltips="1" connect="1" arrows="1" fold="1" page="1" pageScale="1" pageWidth="3300" pageHeight="4681" math="0" shadow="0">
      <root>
        <mxCell id="WIyWlLk6GJQsqaUBKTNV-0" />
        <mxCell id="WIyWlLk6GJQsqaUBKTNV-1" parent="WIyWlLk6GJQsqaUBKTNV-0" />
        <mxCell id="BWTMFTz7C0LnyQWDMruu-101" value="aerolinea" style="swimlane;whiteSpace=wrap;html=1;" vertex="1" parent="WIyWlLk6GJQsqaUBKTNV-1">
          <mxGeometry x="100" y="830" width="1990" height="1220" as="geometry">
            <mxRectangle x="100" y="830" width="90" height="30" as="alternateBounds" />
          </mxGeometry>
        </mxCell>
        <mxCell id="BWTMFTz7C0LnyQWDMruu-44" value="modelo" style="swimlane;whiteSpace=wrap;html=1;" vertex="1" parent="BWTMFTz7C0LnyQWDMruu-101">
          <mxGeometry x="50" y="40" width="1180" height="890" as="geometry" />
        </mxCell>
        <mxCell id="BWTMFTz7C0LnyQWDMruu-68" value="cliente" style="swimlane;whiteSpace=wrap;html=1;" vertex="1" parent="BWTMFTz7C0LnyQWDMruu-44">
          <mxGeometry x="590" y="350" width="560" height="510" as="geometry" />
        </mxCell>
        <mxCell id="BWTMFTz7C0LnyQWDMruu-51" value="ClienteCorporativo" style="swimlane;fontStyle=2;align=center;verticalAlign=top;childLayout=stackLayout;horizontal=1;startSize=26;horizontalStack=0;resizeParent=1;resizeLast=0;collapsible=1;marginBottom=0;rounded=0;shadow=0;strokeWidth=1;" vertex="1" parent="BWTMFTz7C0LnyQWDMruu-68">
          <mxGeometry x="40" y="50" width="200" height="210" as="geometry">
            <mxRectangle x="230" y="140" width="160" height="26" as="alternateBounds" />
          </mxGeometry>
        </mxCell>
        <mxCell id="BWTMFTz7C0LnyQWDMruu-52" value="CORPORATIVO = &quot;Corporativo&quot;" style="text;align=left;verticalAlign=top;spacingLeft=4;spacingRight=4;overflow=hidden;rotatable=0;points=[[0,0.5],[1,0.5]];portConstraint=eastwest;" vertex="1" parent="BWTMFTz7C0LnyQWDMruu-51">
          <mxGeometry y="26" width="200" height="26" as="geometry" />
        </mxCell>
        <mxCell id="BWTMFTz7C0LnyQWDMruu-63" value="GRANDE = 1" style="text;align=left;verticalAlign=top;spacingLeft=4;spacingRight=4;overflow=hidden;rotatable=0;points=[[0,0.5],[1,0.5]];portConstraint=eastwest;" vertex="1" parent="BWTMFTz7C0LnyQWDMruu-51">
          <mxGeometry y="52" width="200" height="26" as="geometry" />
        </mxCell>
        <mxCell id="BWTMFTz7C0LnyQWDMruu-64" value="MEDIANA = 2" style="text;align=left;verticalAlign=top;spacingLeft=4;spacingRight=4;overflow=hidden;rotatable=0;points=[[0,0.5],[1,0.5]];portConstraint=eastwest;" vertex="1" parent="BWTMFTz7C0LnyQWDMruu-51">
          <mxGeometry y="78" width="200" height="26" as="geometry" />
        </mxCell>
        <mxCell id="BWTMFTz7C0LnyQWDMruu-65" value="PEQUEÑA = 3" style="text;align=left;verticalAlign=top;spacingLeft=4;spacingRight=4;overflow=hidden;rotatable=0;points=[[0,0.5],[1,0.5]];portConstraint=eastwest;" vertex="1" parent="BWTMFTz7C0LnyQWDMruu-51">
          <mxGeometry y="104" width="200" height="26" as="geometry" />
        </mxCell>
        <mxCell id="BWTMFTz7C0LnyQWDMruu-66" value="nombreEmpresa" style="text;align=left;verticalAlign=top;spacingLeft=4;spacingRight=4;overflow=hidden;rotatable=0;points=[[0,0.5],[1,0.5]];portConstraint=eastwest;" vertex="1" parent="BWTMFTz7C0LnyQWDMruu-51">
          <mxGeometry y="130" width="200" height="26" as="geometry" />
        </mxCell>
        <mxCell id="BWTMFTz7C0LnyQWDMruu-67" value="tamañoEmpresa" style="text;align=left;verticalAlign=top;spacingLeft=4;spacingRight=4;overflow=hidden;rotatable=0;points=[[0,0.5],[1,0.5]];portConstraint=eastwest;" vertex="1" parent="BWTMFTz7C0LnyQWDMruu-51">
          <mxGeometry y="156" width="200" height="26" as="geometry" />
        </mxCell>
        <mxCell id="BWTMFTz7C0LnyQWDMruu-53" value="" style="line;html=1;strokeWidth=1;align=left;verticalAlign=middle;spacingTop=-1;spacingLeft=3;spacingRight=3;rotatable=0;labelPosition=right;points=[];portConstraint=eastwest;" vertex="1" parent="BWTMFTz7C0LnyQWDMruu-51">
          <mxGeometry y="182" width="200" height="8" as="geometry" />
        </mxCell>
        <mxCell id="BWTMFTz7C0LnyQWDMruu-45" value="&lt;&lt;abstract&gt;&gt;&#xa;Cliente" style="swimlane;fontStyle=2;align=center;verticalAlign=top;childLayout=stackLayout;horizontal=1;startSize=44;horizontalStack=0;resizeParent=1;resizeLast=0;collapsible=1;marginBottom=0;rounded=0;shadow=0;strokeWidth=1;" vertex="1" parent="BWTMFTz7C0LnyQWDMruu-68">
          <mxGeometry x="60" y="339" width="160" height="104" as="geometry">
            <mxRectangle x="230" y="140" width="160" height="26" as="alternateBounds" />
          </mxGeometry>
        </mxCell>
        <mxCell id="BWTMFTz7C0LnyQWDMruu-46" value="fecha" style="text;align=left;verticalAlign=top;spacingLeft=4;spacingRight=4;overflow=hidden;rotatable=0;points=[[0,0.5],[1,0.5]];portConstraint=eastwest;fontColor=#FFFFFF;" vertex="1" parent="BWTMFTz7C0LnyQWDMruu-45">
          <mxGeometry y="44" width="160" height="24" as="geometry" />
        </mxCell>
        <mxCell id="BWTMFTz7C0LnyQWDMruu-47" value="" style="line;html=1;strokeWidth=1;align=left;verticalAlign=middle;spacingTop=-1;spacingLeft=3;spacingRight=3;rotatable=0;labelPosition=right;points=[];portConstraint=eastwest;" vertex="1" parent="BWTMFTz7C0LnyQWDMruu-45">
          <mxGeometry y="68" width="160" height="8" as="geometry" />
        </mxCell>
        <mxCell id="BWTMFTz7C0LnyQWDMruu-58" style="edgeStyle=orthogonalEdgeStyle;rounded=0;orthogonalLoop=1;jettySize=auto;html=1;endArrow=block;endFill=0;" edge="1" parent="BWTMFTz7C0LnyQWDMruu-68" source="BWTMFTz7C0LnyQWDMruu-51" target="BWTMFTz7C0LnyQWDMruu-45">
          <mxGeometry relative="1" as="geometry" />
        </mxCell>
        <mxCell id="BWTMFTz7C0LnyQWDMruu-54" value="ClienteNatural" style="swimlane;fontStyle=2;align=center;verticalAlign=top;childLayout=stackLayout;horizontal=1;startSize=26;horizontalStack=0;resizeParent=1;resizeLast=0;collapsible=1;marginBottom=0;rounded=0;shadow=0;strokeWidth=1;" vertex="1" parent="BWTMFTz7C0LnyQWDMruu-68">
          <mxGeometry x="370" y="336" width="160" height="110" as="geometry">
            <mxRectangle x="230" y="140" width="160" height="26" as="alternateBounds" />
          </mxGeometry>
        </mxCell>
        <mxCell id="BWTMFTz7C0LnyQWDMruu-55" value="NATURAL = &quot;Natural&quot;" style="text;align=left;verticalAlign=top;spacingLeft=4;spacingRight=4;overflow=hidden;rotatable=0;points=[[0,0.5],[1,0.5]];portConstraint=eastwest;" vertex="1" parent="BWTMFTz7C0LnyQWDMruu-54">
          <mxGeometry y="26" width="160" height="26" as="geometry" />
        </mxCell>
        <mxCell id="BWTMFTz7C0LnyQWDMruu-62" value="nombre" style="text;align=left;verticalAlign=top;spacingLeft=4;spacingRight=4;overflow=hidden;rotatable=0;points=[[0,0.5],[1,0.5]];portConstraint=eastwest;fontStyle=4" vertex="1" parent="BWTMFTz7C0LnyQWDMruu-54">
          <mxGeometry y="52" width="160" height="26" as="geometry" />
        </mxCell>
        <mxCell id="BWTMFTz7C0LnyQWDMruu-56" value="" style="line;html=1;strokeWidth=1;align=left;verticalAlign=middle;spacingTop=-1;spacingLeft=3;spacingRight=3;rotatable=0;labelPosition=right;points=[];portConstraint=eastwest;" vertex="1" parent="BWTMFTz7C0LnyQWDMruu-54">
          <mxGeometry y="78" width="160" height="8" as="geometry" />
        </mxCell>
        <mxCell id="BWTMFTz7C0LnyQWDMruu-57" style="edgeStyle=orthogonalEdgeStyle;rounded=0;orthogonalLoop=1;jettySize=auto;html=1;endArrow=block;endFill=0;" edge="1" parent="BWTMFTz7C0LnyQWDMruu-68" source="BWTMFTz7C0LnyQWDMruu-54" target="BWTMFTz7C0LnyQWDMruu-45">
          <mxGeometry relative="1" as="geometry" />
        </mxCell>
        <mxCell id="BWTMFTz7C0LnyQWDMruu-3" value="Aerolinea" style="swimlane;fontStyle=2;align=center;verticalAlign=top;childLayout=stackLayout;horizontal=1;startSize=26;horizontalStack=0;resizeParent=1;resizeLast=0;collapsible=1;marginBottom=0;rounded=0;shadow=0;strokeWidth=1;" vertex="1" parent="BWTMFTz7C0LnyQWDMruu-44">
          <mxGeometry x="345" y="30" width="160" height="80" as="geometry">
            <mxRectangle x="230" y="140" width="160" height="26" as="alternateBounds" />
          </mxGeometry>
        </mxCell>
        <mxCell id="BWTMFTz7C0LnyQWDMruu-4" value="fecha" style="text;align=left;verticalAlign=top;spacingLeft=4;spacingRight=4;overflow=hidden;rotatable=0;points=[[0,0.5],[1,0.5]];portConstraint=eastwest;fontColor=#FFFFFF;" vertex="1" parent="BWTMFTz7C0LnyQWDMruu-3">
          <mxGeometry y="26" width="160" height="26" as="geometry" />
        </mxCell>
        <mxCell id="BWTMFTz7C0LnyQWDMruu-5" value="" style="line;html=1;strokeWidth=1;align=left;verticalAlign=middle;spacingTop=-1;spacingLeft=3;spacingRight=3;rotatable=0;labelPosition=right;points=[];portConstraint=eastwest;" vertex="1" parent="BWTMFTz7C0LnyQWDMruu-3">
          <mxGeometry y="52" width="160" height="8" as="geometry" />
        </mxCell>
        <mxCell id="zkfFHV4jXpPFQw0GAbJ--0" value="Vuelo" style="swimlane;fontStyle=2;align=center;verticalAlign=top;childLayout=stackLayout;horizontal=1;startSize=26;horizontalStack=0;resizeParent=1;resizeLast=0;collapsible=1;marginBottom=0;rounded=0;shadow=0;strokeWidth=1;" parent="BWTMFTz7C0LnyQWDMruu-44" vertex="1">
          <mxGeometry x="345" y="250" width="160" height="80" as="geometry">
            <mxRectangle x="230" y="140" width="160" height="26" as="alternateBounds" />
          </mxGeometry>
        </mxCell>
        <mxCell id="zkfFHV4jXpPFQw0GAbJ--1" value="fecha" style="text;align=left;verticalAlign=top;spacingLeft=4;spacingRight=4;overflow=hidden;rotatable=0;points=[[0,0.5],[1,0.5]];portConstraint=eastwest;" parent="zkfFHV4jXpPFQw0GAbJ--0" vertex="1">
          <mxGeometry y="26" width="160" height="26" as="geometry" />
        </mxCell>
        <mxCell id="zkfFHV4jXpPFQw0GAbJ--4" value="" style="line;html=1;strokeWidth=1;align=left;verticalAlign=middle;spacingTop=-1;spacingLeft=3;spacingRight=3;rotatable=0;labelPosition=right;points=[];portConstraint=eastwest;" parent="zkfFHV4jXpPFQw0GAbJ--0" vertex="1">
          <mxGeometry y="52" width="160" height="8" as="geometry" />
        </mxCell>
        <mxCell id="BWTMFTz7C0LnyQWDMruu-0" value="Avion" style="swimlane;fontStyle=2;align=center;verticalAlign=top;childLayout=stackLayout;horizontal=1;startSize=26;horizontalStack=0;resizeParent=1;resizeLast=0;collapsible=1;marginBottom=0;rounded=0;shadow=0;strokeWidth=1;" vertex="1" parent="BWTMFTz7C0LnyQWDMruu-44">
          <mxGeometry x="105" y="110" width="160" height="110" as="geometry">
            <mxRectangle x="230" y="140" width="160" height="26" as="alternateBounds" />
          </mxGeometry>
        </mxCell>
        <mxCell id="BWTMFTz7C0LnyQWDMruu-12" value="nombre" style="text;align=left;verticalAlign=top;spacingLeft=4;spacingRight=4;overflow=hidden;rotatable=0;points=[[0,0.5],[1,0.5]];portConstraint=eastwest;" vertex="1" parent="BWTMFTz7C0LnyQWDMruu-0">
          <mxGeometry y="26" width="160" height="26" as="geometry" />
        </mxCell>
        <mxCell id="BWTMFTz7C0LnyQWDMruu-1" value="capacidad" style="text;align=left;verticalAlign=top;spacingLeft=4;spacingRight=4;overflow=hidden;rotatable=0;points=[[0,0.5],[1,0.5]];portConstraint=eastwest;" vertex="1" parent="BWTMFTz7C0LnyQWDMruu-0">
          <mxGeometry y="52" width="160" height="26" as="geometry" />
        </mxCell>
        <mxCell id="BWTMFTz7C0LnyQWDMruu-2" value="" style="line;html=1;strokeWidth=1;align=left;verticalAlign=middle;spacingTop=-1;spacingLeft=3;spacingRight=3;rotatable=0;labelPosition=right;points=[];portConstraint=eastwest;" vertex="1" parent="BWTMFTz7C0LnyQWDMruu-0">
          <mxGeometry y="78" width="160" height="8" as="geometry" />
        </mxCell>
        <mxCell id="BWTMFTz7C0LnyQWDMruu-6" value="Ruta" style="swimlane;fontStyle=2;align=center;verticalAlign=top;childLayout=stackLayout;horizontal=1;startSize=26;horizontalStack=0;resizeParent=1;resizeLast=0;collapsible=1;marginBottom=0;rounded=0;shadow=0;strokeWidth=1;" vertex="1" parent="BWTMFTz7C0LnyQWDMruu-44">
          <mxGeometry x="105" y="330" width="160" height="140" as="geometry">
            <mxRectangle x="230" y="140" width="160" height="26" as="alternateBounds" />
          </mxGeometry>
        </mxCell>
        <mxCell id="BWTMFTz7C0LnyQWDMruu-13" value="horaSalida" style="text;align=left;verticalAlign=top;spacingLeft=4;spacingRight=4;overflow=hidden;rotatable=0;points=[[0,0.5],[1,0.5]];portConstraint=eastwest;" vertex="1" parent="BWTMFTz7C0LnyQWDMruu-6">
          <mxGeometry y="26" width="160" height="26" as="geometry" />
        </mxCell>
        <mxCell id="BWTMFTz7C0LnyQWDMruu-14" value="horaLlegada" style="text;align=left;verticalAlign=top;spacingLeft=4;spacingRight=4;overflow=hidden;rotatable=0;points=[[0,0.5],[1,0.5]];portConstraint=eastwest;" vertex="1" parent="BWTMFTz7C0LnyQWDMruu-6">
          <mxGeometry y="52" width="160" height="26" as="geometry" />
        </mxCell>
        <mxCell id="BWTMFTz7C0LnyQWDMruu-7" value="codigoRuta" style="text;align=left;verticalAlign=top;spacingLeft=4;spacingRight=4;overflow=hidden;rotatable=0;points=[[0,0.5],[1,0.5]];portConstraint=eastwest;" vertex="1" parent="BWTMFTz7C0LnyQWDMruu-6">
          <mxGeometry y="78" width="160" height="26" as="geometry" />
        </mxCell>
        <mxCell id="BWTMFTz7C0LnyQWDMruu-8" value="" style="line;html=1;strokeWidth=1;align=left;verticalAlign=middle;spacingTop=-1;spacingLeft=3;spacingRight=3;rotatable=0;labelPosition=right;points=[];portConstraint=eastwest;" vertex="1" parent="BWTMFTz7C0LnyQWDMruu-6">
          <mxGeometry y="104" width="160" height="8" as="geometry" />
        </mxCell>
        <mxCell id="BWTMFTz7C0LnyQWDMruu-9" value="Aeropuerto" style="swimlane;fontStyle=2;align=center;verticalAlign=top;childLayout=stackLayout;horizontal=1;startSize=26;horizontalStack=0;resizeParent=1;resizeLast=0;collapsible=1;marginBottom=0;rounded=0;shadow=0;strokeWidth=1;" vertex="1" parent="BWTMFTz7C0LnyQWDMruu-44">
          <mxGeometry x="90" y="570" width="190" height="240" as="geometry">
            <mxRectangle x="230" y="140" width="160" height="26" as="alternateBounds" />
          </mxGeometry>
        </mxCell>
        <mxCell id="BWTMFTz7C0LnyQWDMruu-15" value="nombre" style="text;align=left;verticalAlign=top;spacingLeft=4;spacingRight=4;overflow=hidden;rotatable=0;points=[[0,0.5],[1,0.5]];portConstraint=eastwest;" vertex="1" parent="BWTMFTz7C0LnyQWDMruu-9">
          <mxGeometry y="26" width="190" height="26" as="geometry" />
        </mxCell>
        <mxCell id="BWTMFTz7C0LnyQWDMruu-16" value="código" style="text;align=left;verticalAlign=top;spacingLeft=4;spacingRight=4;overflow=hidden;rotatable=0;points=[[0,0.5],[1,0.5]];portConstraint=eastwest;" vertex="1" parent="BWTMFTz7C0LnyQWDMruu-9">
          <mxGeometry y="52" width="190" height="26" as="geometry" />
        </mxCell>
        <mxCell id="BWTMFTz7C0LnyQWDMruu-17" value="nombreCiudad" style="text;align=left;verticalAlign=top;spacingLeft=4;spacingRight=4;overflow=hidden;rotatable=0;points=[[0,0.5],[1,0.5]];portConstraint=eastwest;" vertex="1" parent="BWTMFTz7C0LnyQWDMruu-9">
          <mxGeometry y="78" width="190" height="26" as="geometry" />
        </mxCell>
        <mxCell id="BWTMFTz7C0LnyQWDMruu-18" value="latitud" style="text;align=left;verticalAlign=top;spacingLeft=4;spacingRight=4;overflow=hidden;rotatable=0;points=[[0,0.5],[1,0.5]];portConstraint=eastwest;" vertex="1" parent="BWTMFTz7C0LnyQWDMruu-9">
          <mxGeometry y="104" width="190" height="26" as="geometry" />
        </mxCell>
        <mxCell id="BWTMFTz7C0LnyQWDMruu-19" value="longitud" style="text;align=left;verticalAlign=top;spacingLeft=4;spacingRight=4;overflow=hidden;rotatable=0;points=[[0,0.5],[1,0.5]];portConstraint=eastwest;" vertex="1" parent="BWTMFTz7C0LnyQWDMruu-9">
          <mxGeometry y="130" width="190" height="26" as="geometry" />
        </mxCell>
        <mxCell id="BWTMFTz7C0LnyQWDMruu-20" value="códigosUtilizados" style="text;align=left;verticalAlign=top;spacingLeft=4;spacingRight=4;overflow=hidden;rotatable=0;points=[[0,0.5],[1,0.5]];portConstraint=eastwest;fontStyle=4" vertex="1" parent="BWTMFTz7C0LnyQWDMruu-9">
          <mxGeometry y="156" width="190" height="26" as="geometry" />
        </mxCell>
        <mxCell id="BWTMFTz7C0LnyQWDMruu-10" value="RADIO_TERRESTRE = 6371" style="text;align=left;verticalAlign=top;spacingLeft=4;spacingRight=4;overflow=hidden;rotatable=0;points=[[0,0.5],[1,0.5]];portConstraint=eastwest;fontStyle=4" vertex="1" parent="BWTMFTz7C0LnyQWDMruu-9">
          <mxGeometry y="182" width="190" height="26" as="geometry" />
        </mxCell>
        <mxCell id="BWTMFTz7C0LnyQWDMruu-11" value="" style="line;html=1;strokeWidth=1;align=left;verticalAlign=middle;spacingTop=-1;spacingLeft=3;spacingRight=3;rotatable=0;labelPosition=right;points=[];portConstraint=eastwest;" vertex="1" parent="BWTMFTz7C0LnyQWDMruu-9">
          <mxGeometry y="208" width="190" height="8" as="geometry" />
        </mxCell>
        <mxCell id="BWTMFTz7C0LnyQWDMruu-39" style="edgeStyle=orthogonalEdgeStyle;rounded=0;orthogonalLoop=1;jettySize=auto;html=1;" edge="1" parent="BWTMFTz7C0LnyQWDMruu-44" source="BWTMFTz7C0LnyQWDMruu-3" target="zkfFHV4jXpPFQw0GAbJ--0">
          <mxGeometry relative="1" as="geometry" />
        </mxCell>
        <mxCell id="BWTMFTz7C0LnyQWDMruu-40" value="vuelos" style="edgeLabel;html=1;align=center;verticalAlign=middle;resizable=0;points=[];" vertex="1" connectable="0" parent="BWTMFTz7C0LnyQWDMruu-39">
          <mxGeometry x="-0.3023" y="1" relative="1" as="geometry">
            <mxPoint x="-1" y="-9" as="offset" />
          </mxGeometry>
        </mxCell>
        <mxCell id="BWTMFTz7C0LnyQWDMruu-41" value="0..*" style="edgeLabel;html=1;align=center;verticalAlign=middle;resizable=0;points=[];" vertex="1" connectable="0" parent="BWTMFTz7C0LnyQWDMruu-39">
          <mxGeometry x="0.6301" y="3" relative="1" as="geometry">
            <mxPoint x="7" y="6" as="offset" />
          </mxGeometry>
        </mxCell>
        <mxCell id="BWTMFTz7C0LnyQWDMruu-69" style="edgeStyle=orthogonalEdgeStyle;rounded=0;orthogonalLoop=1;jettySize=auto;html=1;" edge="1" parent="BWTMFTz7C0LnyQWDMruu-44" source="zkfFHV4jXpPFQw0GAbJ--0" target="BWTMFTz7C0LnyQWDMruu-45">
          <mxGeometry relative="1" as="geometry">
            <Array as="points">
              <mxPoint x="420" y="770" />
            </Array>
          </mxGeometry>
        </mxCell>
        <mxCell id="BWTMFTz7C0LnyQWDMruu-70" value="clientes" style="edgeLabel;html=1;align=center;verticalAlign=middle;resizable=0;points=[];" vertex="1" connectable="0" parent="BWTMFTz7C0LnyQWDMruu-69">
          <mxGeometry x="-0.8334" y="4" relative="1" as="geometry">
            <mxPoint as="offset" />
          </mxGeometry>
        </mxCell>
        <mxCell id="BWTMFTz7C0LnyQWDMruu-71" value="0..*" style="edgeLabel;html=1;align=center;verticalAlign=middle;resizable=0;points=[];" vertex="1" connectable="0" parent="BWTMFTz7C0LnyQWDMruu-69">
          <mxGeometry x="0.5481" y="-4" relative="1" as="geometry">
            <mxPoint x="132" y="6" as="offset" />
          </mxGeometry>
        </mxCell>
        <mxCell id="BWTMFTz7C0LnyQWDMruu-31" value="1" style="edgeStyle=orthogonalEdgeStyle;rounded=0;orthogonalLoop=1;jettySize=auto;html=1;" edge="1" parent="BWTMFTz7C0LnyQWDMruu-44" source="zkfFHV4jXpPFQw0GAbJ--0" target="BWTMFTz7C0LnyQWDMruu-0">
          <mxGeometry x="0.8095" y="10" relative="1" as="geometry">
            <Array as="points">
              <mxPoint x="180" y="270" />
            </Array>
            <mxPoint y="-1" as="offset" />
          </mxGeometry>
        </mxCell>
        <mxCell id="BWTMFTz7C0LnyQWDMruu-32" value="&amp;nbsp;avion&amp;nbsp;" style="edgeLabel;html=1;align=center;verticalAlign=middle;resizable=0;points=[];" vertex="1" connectable="0" parent="BWTMFTz7C0LnyQWDMruu-31">
          <mxGeometry x="-0.7093" y="-1" relative="1" as="geometry">
            <mxPoint as="offset" />
          </mxGeometry>
        </mxCell>
        <mxCell id="BWTMFTz7C0LnyQWDMruu-36" style="edgeStyle=orthogonalEdgeStyle;rounded=0;orthogonalLoop=1;jettySize=auto;html=1;" edge="1" parent="BWTMFTz7C0LnyQWDMruu-44" source="BWTMFTz7C0LnyQWDMruu-3" target="BWTMFTz7C0LnyQWDMruu-0">
          <mxGeometry relative="1" as="geometry">
            <Array as="points">
              <mxPoint x="300" y="90" />
              <mxPoint x="300" y="165" />
            </Array>
          </mxGeometry>
        </mxCell>
        <mxCell id="BWTMFTz7C0LnyQWDMruu-37" value="aviones" style="edgeLabel;html=1;align=center;verticalAlign=middle;resizable=0;points=[];" vertex="1" connectable="0" parent="BWTMFTz7C0LnyQWDMruu-36">
          <mxGeometry x="-0.0713" relative="1" as="geometry">
            <mxPoint as="offset" />
          </mxGeometry>
        </mxCell>
        <mxCell id="BWTMFTz7C0LnyQWDMruu-38" value="0..*" style="edgeLabel;html=1;align=center;verticalAlign=middle;resizable=0;points=[];" vertex="1" connectable="0" parent="BWTMFTz7C0LnyQWDMruu-36">
          <mxGeometry x="0.6877" y="-1" relative="1" as="geometry">
            <mxPoint x="-5" y="16" as="offset" />
          </mxGeometry>
        </mxCell>
        <mxCell id="BWTMFTz7C0LnyQWDMruu-33" style="edgeStyle=orthogonalEdgeStyle;rounded=0;orthogonalLoop=1;jettySize=auto;html=1;" edge="1" parent="BWTMFTz7C0LnyQWDMruu-44" source="BWTMFTz7C0LnyQWDMruu-3" target="BWTMFTz7C0LnyQWDMruu-6">
          <mxGeometry relative="1" as="geometry">
            <Array as="points">
              <mxPoint x="40" y="60" />
              <mxPoint x="40" y="400" />
            </Array>
          </mxGeometry>
        </mxCell>
        <mxCell id="BWTMFTz7C0LnyQWDMruu-34" value="&amp;nbsp;rutas&amp;nbsp;" style="edgeLabel;html=1;align=center;verticalAlign=middle;resizable=0;points=[];" vertex="1" connectable="0" parent="BWTMFTz7C0LnyQWDMruu-33">
          <mxGeometry x="-0.8413" relative="1" as="geometry">
            <mxPoint x="26" as="offset" />
          </mxGeometry>
        </mxCell>
        <mxCell id="BWTMFTz7C0LnyQWDMruu-35" value="0..*" style="edgeLabel;html=1;align=center;verticalAlign=middle;resizable=0;points=[];" vertex="1" connectable="0" parent="BWTMFTz7C0LnyQWDMruu-33">
          <mxGeometry x="0.9146" y="1" relative="1" as="geometry">
            <mxPoint x="9" y="11" as="offset" />
          </mxGeometry>
        </mxCell>
        <mxCell id="BWTMFTz7C0LnyQWDMruu-28" style="edgeStyle=orthogonalEdgeStyle;rounded=0;orthogonalLoop=1;jettySize=auto;html=1;" edge="1" parent="BWTMFTz7C0LnyQWDMruu-44" source="zkfFHV4jXpPFQw0GAbJ--0" target="BWTMFTz7C0LnyQWDMruu-6">
          <mxGeometry relative="1" as="geometry">
            <mxPoint x="360" y="380" as="sourcePoint" />
            <Array as="points">
              <mxPoint x="320" y="310" />
              <mxPoint x="320" y="410" />
            </Array>
          </mxGeometry>
        </mxCell>
        <mxCell id="BWTMFTz7C0LnyQWDMruu-29" value="ruta" style="edgeLabel;html=1;align=center;verticalAlign=middle;resizable=0;points=[];" vertex="1" connectable="0" parent="BWTMFTz7C0LnyQWDMruu-28">
          <mxGeometry x="-0.5491" relative="1" as="geometry">
            <mxPoint y="25" as="offset" />
          </mxGeometry>
        </mxCell>
        <mxCell id="BWTMFTz7C0LnyQWDMruu-30" value="1" style="edgeLabel;html=1;align=center;verticalAlign=middle;resizable=0;points=[];" vertex="1" connectable="0" parent="BWTMFTz7C0LnyQWDMruu-28">
          <mxGeometry x="0.8158" y="1" relative="1" as="geometry">
            <mxPoint y="9" as="offset" />
          </mxGeometry>
        </mxCell>
        <mxCell id="BWTMFTz7C0LnyQWDMruu-21" style="edgeStyle=orthogonalEdgeStyle;rounded=0;orthogonalLoop=1;jettySize=auto;html=1;" edge="1" parent="BWTMFTz7C0LnyQWDMruu-44" source="BWTMFTz7C0LnyQWDMruu-6" target="BWTMFTz7C0LnyQWDMruu-9">
          <mxGeometry relative="1" as="geometry">
            <Array as="points">
              <mxPoint x="220" y="530" />
              <mxPoint x="220" y="530" />
            </Array>
          </mxGeometry>
        </mxCell>
        <mxCell id="BWTMFTz7C0LnyQWDMruu-23" value="origen" style="edgeLabel;html=1;align=center;verticalAlign=middle;resizable=0;points=[];" vertex="1" connectable="0" parent="BWTMFTz7C0LnyQWDMruu-21">
          <mxGeometry x="-0.5544" y="1" relative="1" as="geometry">
            <mxPoint as="offset" />
          </mxGeometry>
        </mxCell>
        <mxCell id="BWTMFTz7C0LnyQWDMruu-24" value="1" style="edgeLabel;html=1;align=center;verticalAlign=middle;resizable=0;points=[];" vertex="1" connectable="0" parent="BWTMFTz7C0LnyQWDMruu-21">
          <mxGeometry x="0.5509" y="-3" relative="1" as="geometry">
            <mxPoint x="13" y="2" as="offset" />
          </mxGeometry>
        </mxCell>
        <mxCell id="BWTMFTz7C0LnyQWDMruu-22" style="edgeStyle=orthogonalEdgeStyle;rounded=0;orthogonalLoop=1;jettySize=auto;html=1;" edge="1" parent="BWTMFTz7C0LnyQWDMruu-44" source="BWTMFTz7C0LnyQWDMruu-6" target="BWTMFTz7C0LnyQWDMruu-9">
          <mxGeometry relative="1" as="geometry">
            <Array as="points">
              <mxPoint x="140" y="530" />
              <mxPoint x="140" y="530" />
            </Array>
          </mxGeometry>
        </mxCell>
        <mxCell id="BWTMFTz7C0LnyQWDMruu-25" value="destino" style="edgeLabel;html=1;align=center;verticalAlign=middle;resizable=0;points=[];" vertex="1" connectable="0" parent="BWTMFTz7C0LnyQWDMruu-22">
          <mxGeometry x="-0.6947" y="1" relative="1" as="geometry">
            <mxPoint y="12" as="offset" />
          </mxGeometry>
        </mxCell>
        <mxCell id="BWTMFTz7C0LnyQWDMruu-27" value="1" style="edgeLabel;html=1;align=center;verticalAlign=middle;resizable=0;points=[];" vertex="1" connectable="0" parent="BWTMFTz7C0LnyQWDMruu-22">
          <mxGeometry x="0.6386" relative="1" as="geometry">
            <mxPoint x="10" as="offset" />
          </mxGeometry>
        </mxCell>
        <mxCell id="BWTMFTz7C0LnyQWDMruu-72" value="tiquetes" style="swimlane;whiteSpace=wrap;html=1;" vertex="1" parent="BWTMFTz7C0LnyQWDMruu-101">
          <mxGeometry x="660" y="960" width="550" height="240" as="geometry" />
        </mxCell>
        <mxCell id="BWTMFTz7C0LnyQWDMruu-73" value="Tiquete" style="swimlane;fontStyle=2;align=center;verticalAlign=top;childLayout=stackLayout;horizontal=1;startSize=26;horizontalStack=0;resizeParent=1;resizeLast=0;collapsible=1;marginBottom=0;rounded=0;shadow=0;strokeWidth=1;" vertex="1" parent="BWTMFTz7C0LnyQWDMruu-72">
          <mxGeometry x="20" y="70" width="200" height="140" as="geometry">
            <mxRectangle x="230" y="140" width="160" height="26" as="alternateBounds" />
          </mxGeometry>
        </mxCell>
        <mxCell id="BWTMFTz7C0LnyQWDMruu-74" value="código" style="text;align=left;verticalAlign=top;spacingLeft=4;spacingRight=4;overflow=hidden;rotatable=0;points=[[0,0.5],[1,0.5]];portConstraint=eastwest;" vertex="1" parent="BWTMFTz7C0LnyQWDMruu-73">
          <mxGeometry y="26" width="200" height="26" as="geometry" />
        </mxCell>
        <mxCell id="BWTMFTz7C0LnyQWDMruu-75" value="tarifa" style="text;align=left;verticalAlign=top;spacingLeft=4;spacingRight=4;overflow=hidden;rotatable=0;points=[[0,0.5],[1,0.5]];portConstraint=eastwest;" vertex="1" parent="BWTMFTz7C0LnyQWDMruu-73">
          <mxGeometry y="52" width="200" height="26" as="geometry" />
        </mxCell>
        <mxCell id="BWTMFTz7C0LnyQWDMruu-76" value="usado" style="text;align=left;verticalAlign=top;spacingLeft=4;spacingRight=4;overflow=hidden;rotatable=0;points=[[0,0.5],[1,0.5]];portConstraint=eastwest;" vertex="1" parent="BWTMFTz7C0LnyQWDMruu-73">
          <mxGeometry y="78" width="200" height="26" as="geometry" />
        </mxCell>
        <mxCell id="BWTMFTz7C0LnyQWDMruu-80" value="" style="line;html=1;strokeWidth=1;align=left;verticalAlign=middle;spacingTop=-1;spacingLeft=3;spacingRight=3;rotatable=0;labelPosition=right;points=[];portConstraint=eastwest;" vertex="1" parent="BWTMFTz7C0LnyQWDMruu-73">
          <mxGeometry y="104" width="200" height="8" as="geometry" />
        </mxCell>
        <mxCell id="BWTMFTz7C0LnyQWDMruu-89" style="edgeStyle=orthogonalEdgeStyle;rounded=0;orthogonalLoop=1;jettySize=auto;html=1;dashed=1;dashPattern=12 12;endArrow=open;endFill=0;" edge="1" parent="BWTMFTz7C0LnyQWDMruu-72" source="BWTMFTz7C0LnyQWDMruu-81" target="BWTMFTz7C0LnyQWDMruu-73">
          <mxGeometry relative="1" as="geometry" />
        </mxCell>
        <mxCell id="BWTMFTz7C0LnyQWDMruu-90" value="&amp;lt;&amp;lt;builds&amp;gt;&amp;gt;" style="edgeLabel;html=1;align=center;verticalAlign=middle;resizable=0;points=[];" vertex="1" connectable="0" parent="BWTMFTz7C0LnyQWDMruu-89">
          <mxGeometry x="-0.0853" y="4" relative="1" as="geometry">
            <mxPoint y="-22" as="offset" />
          </mxGeometry>
        </mxCell>
        <mxCell id="BWTMFTz7C0LnyQWDMruu-81" value="GeneradorTiquetes" style="swimlane;fontStyle=2;align=center;verticalAlign=top;childLayout=stackLayout;horizontal=1;startSize=26;horizontalStack=0;resizeParent=1;resizeLast=0;collapsible=1;marginBottom=0;rounded=0;shadow=0;strokeWidth=1;" vertex="1" parent="BWTMFTz7C0LnyQWDMruu-72">
          <mxGeometry x="330" y="95" width="200" height="90" as="geometry">
            <mxRectangle x="230" y="140" width="160" height="26" as="alternateBounds" />
          </mxGeometry>
        </mxCell>
        <mxCell id="BWTMFTz7C0LnyQWDMruu-82" value="códigos" style="text;align=left;verticalAlign=top;spacingLeft=4;spacingRight=4;overflow=hidden;rotatable=0;points=[[0,0.5],[1,0.5]];portConstraint=eastwest;" vertex="1" parent="BWTMFTz7C0LnyQWDMruu-81">
          <mxGeometry y="26" width="200" height="26" as="geometry" />
        </mxCell>
        <mxCell id="BWTMFTz7C0LnyQWDMruu-85" value="" style="line;html=1;strokeWidth=1;align=left;verticalAlign=middle;spacingTop=-1;spacingLeft=3;spacingRight=3;rotatable=0;labelPosition=right;points=[];portConstraint=eastwest;" vertex="1" parent="BWTMFTz7C0LnyQWDMruu-81">
          <mxGeometry y="52" width="200" height="8" as="geometry" />
        </mxCell>
        <mxCell id="BWTMFTz7C0LnyQWDMruu-92" style="edgeStyle=orthogonalEdgeStyle;rounded=0;orthogonalLoop=1;jettySize=auto;html=1;" edge="1" parent="BWTMFTz7C0LnyQWDMruu-101" source="BWTMFTz7C0LnyQWDMruu-73" target="BWTMFTz7C0LnyQWDMruu-45">
          <mxGeometry relative="1" as="geometry">
            <Array as="points">
              <mxPoint x="730" y="940" />
              <mxPoint x="730" y="940" />
            </Array>
          </mxGeometry>
        </mxCell>
        <mxCell id="BWTMFTz7C0LnyQWDMruu-93" value="cliente" style="edgeLabel;html=1;align=center;verticalAlign=middle;resizable=0;points=[];" vertex="1" connectable="0" parent="BWTMFTz7C0LnyQWDMruu-92">
          <mxGeometry x="-0.7796" y="-1" relative="1" as="geometry">
            <mxPoint as="offset" />
          </mxGeometry>
        </mxCell>
        <mxCell id="BWTMFTz7C0LnyQWDMruu-94" value="1" style="edgeLabel;html=1;align=center;verticalAlign=middle;resizable=0;points=[];" vertex="1" connectable="0" parent="BWTMFTz7C0LnyQWDMruu-92">
          <mxGeometry x="0.752" y="-1" relative="1" as="geometry">
            <mxPoint x="-11" y="-6" as="offset" />
          </mxGeometry>
        </mxCell>
        <mxCell id="BWTMFTz7C0LnyQWDMruu-95" style="edgeStyle=orthogonalEdgeStyle;rounded=0;orthogonalLoop=1;jettySize=auto;html=1;" edge="1" parent="BWTMFTz7C0LnyQWDMruu-101" source="BWTMFTz7C0LnyQWDMruu-45" target="BWTMFTz7C0LnyQWDMruu-73">
          <mxGeometry relative="1" as="geometry">
            <Array as="points">
              <mxPoint x="780" y="940" />
              <mxPoint x="780" y="940" />
            </Array>
          </mxGeometry>
        </mxCell>
        <mxCell id="BWTMFTz7C0LnyQWDMruu-97" value="tiquetesSinUsar" style="edgeLabel;html=1;align=center;verticalAlign=middle;resizable=0;points=[];" vertex="1" connectable="0" parent="BWTMFTz7C0LnyQWDMruu-95">
          <mxGeometry x="-0.8409" y="-2" relative="1" as="geometry">
            <mxPoint x="2" as="offset" />
          </mxGeometry>
        </mxCell>
        <mxCell id="BWTMFTz7C0LnyQWDMruu-98" value="0..*" style="edgeLabel;html=1;align=center;verticalAlign=middle;resizable=0;points=[];" vertex="1" connectable="0" parent="BWTMFTz7C0LnyQWDMruu-95">
          <mxGeometry x="0.7698" y="-1" relative="1" as="geometry">
            <mxPoint x="11" as="offset" />
          </mxGeometry>
        </mxCell>
        <mxCell id="BWTMFTz7C0LnyQWDMruu-96" style="edgeStyle=orthogonalEdgeStyle;rounded=0;orthogonalLoop=1;jettySize=auto;html=1;" edge="1" parent="BWTMFTz7C0LnyQWDMruu-101" source="BWTMFTz7C0LnyQWDMruu-45" target="BWTMFTz7C0LnyQWDMruu-73">
          <mxGeometry relative="1" as="geometry">
            <Array as="points">
              <mxPoint x="830" y="940" />
              <mxPoint x="830" y="940" />
            </Array>
          </mxGeometry>
        </mxCell>
        <mxCell id="BWTMFTz7C0LnyQWDMruu-99" value="tiquetesUsados" style="edgeLabel;html=1;align=center;verticalAlign=middle;resizable=0;points=[];" vertex="1" connectable="0" parent="BWTMFTz7C0LnyQWDMruu-96">
          <mxGeometry x="-0.6532" relative="1" as="geometry">
            <mxPoint as="offset" />
          </mxGeometry>
        </mxCell>
        <mxCell id="BWTMFTz7C0LnyQWDMruu-100" value="0..*" style="edgeLabel;html=1;align=center;verticalAlign=middle;resizable=0;points=[];" vertex="1" connectable="0" parent="BWTMFTz7C0LnyQWDMruu-96">
          <mxGeometry x="0.7895" y="-2" relative="1" as="geometry">
            <mxPoint x="12" as="offset" />
          </mxGeometry>
        </mxCell>
        <mxCell id="BWTMFTz7C0LnyQWDMruu-411" value="tarifas" style="swimlane;whiteSpace=wrap;html=1;" vertex="1" parent="BWTMFTz7C0LnyQWDMruu-101">
          <mxGeometry x="1360" y="40" width="600" height="380" as="geometry" />
        </mxCell>
        <mxCell id="BWTMFTz7C0LnyQWDMruu-412" value="CalculadoraTarifasTemporadaBaja" style="swimlane;fontStyle=2;align=center;verticalAlign=top;childLayout=stackLayout;horizontal=1;startSize=26;horizontalStack=0;resizeParent=1;resizeLast=0;collapsible=1;marginBottom=0;rounded=0;shadow=0;strokeWidth=1;" vertex="1" parent="BWTMFTz7C0LnyQWDMruu-411">
          <mxGeometry x="335" y="40" width="240" height="190" as="geometry">
            <mxRectangle x="230" y="140" width="160" height="26" as="alternateBounds" />
          </mxGeometry>
        </mxCell>
        <mxCell id="BWTMFTz7C0LnyQWDMruu-413" value="COSTO_POR_KM_NATURAL = 600" style="text;align=left;verticalAlign=top;spacingLeft=4;spacingRight=4;overflow=hidden;rotatable=0;points=[[0,0.5],[1,0.5]];portConstraint=eastwest;" vertex="1" parent="BWTMFTz7C0LnyQWDMruu-412">
          <mxGeometry y="26" width="240" height="26" as="geometry" />
        </mxCell>
        <mxCell id="BWTMFTz7C0LnyQWDMruu-441" value="COSTO_POR_KM_CORPORATIVO = 900" style="text;align=left;verticalAlign=top;spacingLeft=4;spacingRight=4;overflow=hidden;rotatable=0;points=[[0,0.5],[1,0.5]];portConstraint=eastwest;" vertex="1" parent="BWTMFTz7C0LnyQWDMruu-412">
          <mxGeometry y="52" width="240" height="26" as="geometry" />
        </mxCell>
        <mxCell id="BWTMFTz7C0LnyQWDMruu-443" value="DESCUENTO_PEQ = 0.02" style="text;align=left;verticalAlign=top;spacingLeft=4;spacingRight=4;overflow=hidden;rotatable=0;points=[[0,0.5],[1,0.5]];portConstraint=eastwest;" vertex="1" parent="BWTMFTz7C0LnyQWDMruu-412">
          <mxGeometry y="78" width="240" height="26" as="geometry" />
        </mxCell>
        <mxCell id="BWTMFTz7C0LnyQWDMruu-444" value="DESCUENTO_MEDIANAS = 0.1" style="text;align=left;verticalAlign=top;spacingLeft=4;spacingRight=4;overflow=hidden;rotatable=0;points=[[0,0.5],[1,0.5]];portConstraint=eastwest;" vertex="1" parent="BWTMFTz7C0LnyQWDMruu-412">
          <mxGeometry y="104" width="240" height="26" as="geometry" />
        </mxCell>
        <mxCell id="BWTMFTz7C0LnyQWDMruu-442" value="DESCUENTO_GRANDES = 0.2" style="text;align=left;verticalAlign=top;spacingLeft=4;spacingRight=4;overflow=hidden;rotatable=0;points=[[0,0.5],[1,0.5]];portConstraint=eastwest;" vertex="1" parent="BWTMFTz7C0LnyQWDMruu-412">
          <mxGeometry y="130" width="240" height="26" as="geometry" />
        </mxCell>
        <mxCell id="BWTMFTz7C0LnyQWDMruu-419" value="" style="line;html=1;strokeWidth=1;align=left;verticalAlign=middle;spacingTop=-1;spacingLeft=3;spacingRight=3;rotatable=0;labelPosition=right;points=[];portConstraint=eastwest;" vertex="1" parent="BWTMFTz7C0LnyQWDMruu-412">
          <mxGeometry y="156" width="240" height="8" as="geometry" />
        </mxCell>
        <mxCell id="BWTMFTz7C0LnyQWDMruu-420" value="&lt;&lt;abstract&gt;&gt;&#xa;CalculadoraTarifas" style="swimlane;fontStyle=2;align=center;verticalAlign=top;childLayout=stackLayout;horizontal=1;startSize=44;horizontalStack=0;resizeParent=1;resizeLast=0;collapsible=1;marginBottom=0;rounded=0;shadow=0;strokeWidth=1;" vertex="1" parent="BWTMFTz7C0LnyQWDMruu-411">
          <mxGeometry x="60" y="250" width="160" height="104" as="geometry">
            <mxRectangle x="230" y="140" width="160" height="26" as="alternateBounds" />
          </mxGeometry>
        </mxCell>
        <mxCell id="BWTMFTz7C0LnyQWDMruu-440" value="IMPUESTO = 0.28" style="text;align=left;verticalAlign=top;spacingLeft=4;spacingRight=4;overflow=hidden;rotatable=0;points=[[0,0.5],[1,0.5]];portConstraint=eastwest;" vertex="1" parent="BWTMFTz7C0LnyQWDMruu-420">
          <mxGeometry y="44" width="160" height="26" as="geometry" />
        </mxCell>
        <mxCell id="BWTMFTz7C0LnyQWDMruu-422" value="" style="line;html=1;strokeWidth=1;align=left;verticalAlign=middle;spacingTop=-1;spacingLeft=3;spacingRight=3;rotatable=0;labelPosition=right;points=[];portConstraint=eastwest;" vertex="1" parent="BWTMFTz7C0LnyQWDMruu-420">
          <mxGeometry y="70" width="160" height="8" as="geometry" />
        </mxCell>
        <mxCell id="BWTMFTz7C0LnyQWDMruu-423" style="edgeStyle=orthogonalEdgeStyle;rounded=0;orthogonalLoop=1;jettySize=auto;html=1;endArrow=block;endFill=0;dashed=1;dashPattern=12 12;" edge="1" parent="BWTMFTz7C0LnyQWDMruu-411" source="BWTMFTz7C0LnyQWDMruu-412" target="BWTMFTz7C0LnyQWDMruu-420">
          <mxGeometry relative="1" as="geometry" />
        </mxCell>
        <mxCell id="BWTMFTz7C0LnyQWDMruu-424" value="CalculadoraTarifasTemporadaAlta" style="swimlane;fontStyle=2;align=center;verticalAlign=top;childLayout=stackLayout;horizontal=1;startSize=26;horizontalStack=0;resizeParent=1;resizeLast=0;collapsible=1;marginBottom=0;rounded=0;shadow=0;strokeWidth=1;" vertex="1" parent="BWTMFTz7C0LnyQWDMruu-411">
          <mxGeometry x="340" y="260" width="230" height="84" as="geometry">
            <mxRectangle x="230" y="140" width="160" height="26" as="alternateBounds" />
          </mxGeometry>
        </mxCell>
        <mxCell id="BWTMFTz7C0LnyQWDMruu-425" value="COSTO_POR_KM = 1000" style="text;align=left;verticalAlign=top;spacingLeft=4;spacingRight=4;overflow=hidden;rotatable=0;points=[[0,0.5],[1,0.5]];portConstraint=eastwest;" vertex="1" parent="BWTMFTz7C0LnyQWDMruu-424">
          <mxGeometry y="26" width="230" height="26" as="geometry" />
        </mxCell>
        <mxCell id="BWTMFTz7C0LnyQWDMruu-427" value="" style="line;html=1;strokeWidth=1;align=left;verticalAlign=middle;spacingTop=-1;spacingLeft=3;spacingRight=3;rotatable=0;labelPosition=right;points=[];portConstraint=eastwest;" vertex="1" parent="BWTMFTz7C0LnyQWDMruu-424">
          <mxGeometry y="52" width="230" height="8" as="geometry" />
        </mxCell>
        <mxCell id="BWTMFTz7C0LnyQWDMruu-428" style="edgeStyle=orthogonalEdgeStyle;rounded=0;orthogonalLoop=1;jettySize=auto;html=1;endArrow=block;endFill=0;dashed=1;dashPattern=12 12;" edge="1" parent="BWTMFTz7C0LnyQWDMruu-411" source="BWTMFTz7C0LnyQWDMruu-424" target="BWTMFTz7C0LnyQWDMruu-420">
          <mxGeometry relative="1" as="geometry">
            <Array as="points">
              <mxPoint x="310" y="302" />
              <mxPoint x="310" y="302" />
            </Array>
          </mxGeometry>
        </mxCell>
        <mxCell id="BWTMFTz7C0LnyQWDMruu-445" style="edgeStyle=orthogonalEdgeStyle;rounded=0;orthogonalLoop=1;jettySize=auto;html=1;endArrow=open;endFill=0;dashed=1;dashPattern=12 12;" edge="1" parent="BWTMFTz7C0LnyQWDMruu-101" source="BWTMFTz7C0LnyQWDMruu-420" target="BWTMFTz7C0LnyQWDMruu-68">
          <mxGeometry relative="1" as="geometry">
            <Array as="points">
              <mxPoint x="920" y="350" />
            </Array>
          </mxGeometry>
        </mxCell>
        <mxCell id="BWTMFTz7C0LnyQWDMruu-446" style="edgeStyle=orthogonalEdgeStyle;rounded=0;orthogonalLoop=1;jettySize=auto;html=1;endArrow=open;endFill=0;dashed=1;dashPattern=12 12;" edge="1" parent="BWTMFTz7C0LnyQWDMruu-101" source="BWTMFTz7C0LnyQWDMruu-420" target="zkfFHV4jXpPFQw0GAbJ--0">
          <mxGeometry relative="1" as="geometry">
            <mxPoint x="600" y="230" as="targetPoint" />
            <Array as="points">
              <mxPoint x="650" y="330" />
              <mxPoint x="650" y="330" />
            </Array>
          </mxGeometry>
        </mxCell>
      </root>
    </mxGraphModel>
  </diagram>
</mxfile>
